<svg id="Layer_1" height="512" viewBox="0 0 150 150" width="512" xmlns="http://www.w3.org/2000/svg" data-name="Layer 1"><path d="m139 39.026h-128a1 1 0 0 1 -1-1v-27.026a1 1 0 0 1 1-1h128a1 1 0 0 1 1 1v27.026a1 1 0 0 1 -1 1zm-127-2h126v-25.026h-126z"/><path d="m139 140h-128a1 1 0 0 1 -1-1v-100.974a1 1 0 0 1 1-1h128a1 1 0 0 1 1 1v100.974a1 1 0 0 1 -1 1zm-127-2h126v-98.974h-126z"/><path d="m125.405 29.7a5.186 5.186 0 1 1 5.187-5.186 5.192 5.192 0 0 1 -5.187 5.186zm0-8.372a3.186 3.186 0 1 0 3.187 3.186 3.189 3.189 0 0 0 -3.187-3.187z"/><path d="m107.25 29.7a5.186 5.186 0 1 1 5.187-5.186 5.192 5.192 0 0 1 -5.187 5.186zm0-8.372a3.186 3.186 0 1 0 3.187 3.186 3.189 3.189 0 0 0 -3.187-3.187z"/><path d="m89.1 29.7a5.186 5.186 0 1 1 5.187-5.186 5.191 5.191 0 0 1 -5.187 5.186zm0-8.372a3.186 3.186 0 1 0 3.187 3.186 3.189 3.189 0 0 0 -3.187-3.187z"/><path d="m76.573 25.513h-56.587a1 1 0 0 1 0-2h56.587a1 1 0 0 1 0 2z"/><path d="m125.327 134.062a1 1 0 0 1 -.707-.293l-16.773-16.769-6.241 9.356a1 1 0 0 1 -1.8-.3l-8.512-32.944a1 1 0 0 1 1.22-1.218l32.919 8.526a1 1 0 0 1 .3 1.8l-9.355 6.24 16.773 16.774a1 1 0 0 1 0 1.414l-7.12 7.12a1 1 0 0 1 -.704.294zm-17.636-19.636a1 1 0 0 1 .707.293l16.929 16.928 5.706-5.7-16.933-16.934a1 1 0 0 1 .153-1.539l8.511-5.678-29.112-7.54 7.527 29.125 5.676-8.51a1 1 0 0 1 .734-.44.815.815 0 0 1 .102-.005z"/><path d="m82.693 95.3a1.032 1.032 0 0 1 -.124-.008l-7.844-.969a1 1 0 1 1 .245-1.985l7.844.969a1 1 0 0 1 -.121 1.993z"/><path d="m86.3 87.914a1 1 0 0 1 -.707-.293l-5.586-5.588a1 1 0 1 1 1.414-1.414l5.586 5.588a1 1 0 0 1 -.707 1.707z"/><path d="m93.687 84.306a1 1 0 0 1 -.991-.878l-.969-7.843a1 1 0 0 1 1.985-.245l.969 7.843a1 1 0 0 1 -.87 1.115 1.032 1.032 0 0 1 -.124.008z"/><path d="m129.75 49.8h-109.5a1 1 0 1 1 0-2h109.5a1 1 0 0 1 0 2z"/><path d="m129.75 63.13h-109.5a1 1 0 1 1 0-2h109.5a1 1 0 0 1 0 2z"/><path d="m77.74 76.463h-57.49a1 1 0 0 1 0-2h57.49a1 1 0 0 1 0 2z"/></svg>